# xmcd CD database file
#
# Track frame offsets:
#	150
#	11210
#	25877
#	36930
#	47887
#	58210
#	68409
#	80272
#	94843
#	105139
#	116338
#	129327
#	140941
#	150830
#	162151
#	174235
#	185348
#	217001
#	252869
#
# Disc length: 3788 seconds
#
# Revision: 1
# Processed by: cddbd v1.5.2PL0 Copyright (c) Steve Scherf et al.
# Submitted via: FreeDB 13.2
#
DISCID=f50eca13
DTITLE=Dinah Washington - Bye Bye Blues
DYEAR=2002
DGENRE=Blues
TTITLE0=I Cried for You
TTITLE1=Gambler's Blues
TTITLE2=Fat Daddy
TTITLE3=TV Is the Thing
TTITLE4=Lean Baby
TTITLE5=Never, Never
TTITLE6=I Ain't Goin' To Cry No More
TTITLE7=Am I Blue
TTITLE8=Pennies from Heaven
TTITLE9=Set Me Free
TTITLE10=Short John
TTITLE11=Old Man's Darlin'
TTITLE12=Love for Sale
TTITLE13=Our Love Is Here To Stay
TTITLE14=Until Sunrise
TTITLE15=One Arabian Night
TTITLE16=I Let a Song Go Out of My Heart
TTITLE17=A Foggy Day
TTITLE18=Bye Bye Blues
EXTD=Past Perfect 220350-203
EXTT0=Freed - Arnheim - Lyman
EXTT1=Washington
EXTT2=Sanford - Medley
EXTT3=Sanford - Medley
EXTT4=May - Alfred
EXTT5=Kirkland - Luke
EXTT6=Sanford - Medley
EXTT7=Clark - Akst
EXTT8=Burke - Johnston
EXTT9=Sanford - Medley
EXTT10=Elroy - Crane
EXTT11=Kirkland
EXTT12=Porter
EXTT13=G. and I. Gershwin
EXTT14=Chase
EXTT15=Gimbel
EXTT16=Mills - Ellington - Nemo - Redmond
EXTT17=G. and I. Gershwin
EXTT18=Hamm - Bennett - Lown - Gray
PLAYORDER=
